<svg width="1000" height="1000" viewBox="0 0 1000 1000" fill="none" xmlns="http://www.w3.org/2000/svg">
<path d="M687.379 130H312.621C155.429 130 28 257.56 28 414.913V585.087C28 742.44 155.429 870 312.621 870H687.379C844.571 870 972 742.44 972 585.087V414.913C972 257.56 844.571 130 687.379 130Z" fill="#3858E9"/>
<path d="M293.436 308.523C274.25 275.253 231.729 263.82 198.494 283.067C165.258 302.272 153.837 344.836 173.063 378.106C192.249 411.376 234.77 422.809 268.006 403.562C301.242 384.357 312.663 341.793 293.436 308.523Z" fill="#FFFF00"/>
<path d="M542.397 351.827C509.161 332.622 466.641 344.014 447.455 377.284L306.377 621.894C287.191 655.164 298.571 697.728 331.807 716.933C365.043 736.139 407.564 724.747 426.749 691.477L567.828 446.867C587.013 413.597 575.633 371.033 542.397 351.827Z" fill="#FFFF00"/>
<path d="M801.548 283.067C768.312 263.861 725.791 275.253 706.605 308.523L526.088 621.565C506.902 654.835 518.282 697.399 551.518 716.604C584.754 735.81 627.274 724.418 646.46 691.148L826.978 378.106C846.163 344.836 834.783 302.272 801.548 283.067Z" fill="#FFFF00"/>
</svg>
