<?xml version="1.0" encoding="UTF-8"?>
<svg id="Layer_2" xmlns="http://www.w3.org/2000/svg" viewBox="0 0 229.78 179.94">
  <g id="_x32_">
    <g id="Blue_-_Yellow">
      <g id="Layer_6">
        <rect x="0" width="229.78" height="179.94" rx="69.28" ry="69.28" fill="#3858e9"/>
        <g>
          <path d="M64.61,43.41h0c-4.67-8.09-15.02-10.87-23.11-6.19h0c-8.09,4.67-10.87,15.02-6.19,23.11h0c4.67,8.09,15.02,10.87,23.11,6.19h0c8.09-4.67,10.87-15.02,6.19-23.11Z" fill="#ff0"/>
          <path d="M125.21,53.94h0c-8.09-4.67-18.44-1.9-23.11,6.19l-34.34,59.48c-4.67,8.09-1.9,18.44,6.19,23.11h0c8.09,4.67,18.44,1.9,23.11-6.19l34.34-59.48c4.67-8.09,1.9-18.44-6.19-23.11Z" fill="#ff0"/>
          <path d="M188.29,37.22h0c-8.09-4.67-18.44-1.9-23.11,6.19l-43.94,76.12c-4.67,8.09-1.9,18.44,6.19,23.11h0c8.09,4.67,18.44,1.9,23.11-6.19l43.94-76.12c4.67-8.09,1.9-18.44-6.19-23.11Z" fill="#ff0"/>
        </g>
      </g>
    </g>
  </g>
</svg>