<?xml version="1.0" encoding="UTF-8"?>
<svg id="Layer_2" xmlns="http://www.w3.org/2000/svg" viewBox="0 0 860.44 179.94">
  <g id="_x32_">
    <g id="Blue_-_Yellow">
      <g id="Layer_6">
        <rect x="0" width="229.78" height="179.94" rx="69.28" ry="69.28" fill="#3858e9"/>
        <g>
          <path d="M64.61,43.41h0c-4.67-8.09-15.02-10.87-23.11-6.19h0c-8.09,4.67-10.87,15.02-6.19,23.11h0c4.67,8.09,15.02,10.87,23.11,6.19h0c8.09-4.67,10.87-15.02,6.19-23.11Z" fill="#ff0"/>
          <path d="M125.21,53.94h0c-8.09-4.67-18.44-1.9-23.11,6.19l-34.34,59.48c-4.67,8.09-1.9,18.44,6.19,23.11h0c8.09,4.67,18.44,1.9,23.11-6.19l34.34-59.48c4.67-8.09,1.9-18.44-6.19-23.11Z" fill="#ff0"/>
          <path d="M188.29,37.22h0c-8.09-4.67-18.44-1.9-23.11,6.19l-43.94,76.12c-4.67,8.09-1.9,18.44,6.19,23.11h0c8.09,4.67,18.44,1.9,23.11-6.19l43.94-76.12c4.67-8.09,1.9-18.44-6.19-23.11Z" fill="#ff0"/>
        </g>
      </g>
      <g>
        <path d="M275.86,70.81h9.94l16.49,50.32,16.85-50.56h7.76l16.98,50.56,16.49-50.32h9.7l-22.07,63.17h-8.13l-16.85-49.47-16.98,49.47h-8.24l-21.95-63.17Z" fill="#0a0a26"/>
        <path d="M378.69,102.34v-.24c0-18.07,12.73-32.62,30.07-32.62,18.55,0,29.22,14.79,29.22,33.1,0,1.21,0,1.94-.12,3.03h-49.71c1.33,13.58,10.91,21.22,22.07,21.22,8.61,0,14.67-3.52,19.77-8.85l5.82,5.21c-6.31,7.03-13.95,11.76-25.83,11.76-17.22,0-31.28-13.22-31.28-32.62ZM428.52,98.7c-.97-11.4-7.52-21.34-20.01-21.34-10.91,0-19.16,9.09-20.37,21.34h40.38Z" fill="#0a0a26"/>
        <path d="M463.69,121.5v12h-9.34V44.99h9.34v38.44c5.09-7.52,12.49-13.94,24.01-13.94,15.04,0,29.95,11.88,29.95,32.5v.24c0,20.49-14.79,32.62-29.95,32.62-11.64,0-19.16-6.31-24.01-13.34ZM508.07,102.34v-.24c0-14.79-10.18-24.25-22.07-24.25s-22.68,9.82-22.68,24.13v.24c0,14.55,11.03,24.25,22.68,24.25s22.07-8.97,22.07-24.13Z" fill="#0a0a26"/>
        <path d="M535.11,46.8h10.67v10.31h-10.67v-10.31ZM535.71,70.81h9.34v62.69h-9.34v-62.69Z" fill="#0a0a26"/>
        <path d="M566.76,70.81h9.34v10.91c4.12-6.79,10.67-12.25,21.46-12.25,15.16,0,24.01,10.19,24.01,25.1v38.92h-9.34v-36.62c0-11.64-6.31-18.92-17.34-18.92s-18.79,7.88-18.79,19.64v35.89h-9.34v-62.69Z" fill="#0a0a26"/>
        <path d="M635.99,115.07v-.24c0-13.82,10.79-20.61,26.43-20.61,7.15,0,12.25,1.09,17.22,2.67v-1.58c0-9.09-5.58-13.94-15.88-13.94-7.15,0-12.49,1.58-18.31,4l-3.88-11.52c7.03-3.15,13.94-5.21,24.13-5.21,9.58,0,16.73,2.55,21.22,7.15,4.73,4.61,6.91,11.4,6.91,19.76v37.95h-14.31v-8c-4.37,5.21-11.03,9.34-20.86,9.34-12.01,0-22.68-6.91-22.68-19.76ZM679.89,110.46v-4.37c-3.76-1.45-8.73-2.55-14.55-2.55-9.46,0-15.04,4-15.04,10.67v.24c0,6.18,5.46,9.7,12.49,9.7,9.7,0,17.1-5.58,17.1-13.7Z" fill="#0a0a26"/>
        <path d="M706.2,125.14l6.55-9.94c7.03,5.21,14.43,7.88,20.98,7.88s9.94-2.67,9.94-6.91v-.24c0-4.97-6.79-6.67-14.31-8.97-9.46-2.67-20.01-6.55-20.01-18.79v-.24c0-12.13,10.06-19.52,22.8-19.52,8,0,16.73,2.79,23.52,7.28l-5.82,10.43c-6.18-3.76-12.73-6.06-18.07-6.06-5.7,0-8.97,2.67-8.97,6.31v.24c0,4.73,6.91,6.67,14.43,9.09,9.34,2.91,19.89,7.15,19.89,18.67v.24c0,13.46-10.43,20.13-23.77,20.13-9.09,0-19.16-3.27-27.16-9.58Z" fill="#0a0a26"/>
        <path d="M772.41,45.71h15.76v13.94h-15.76v-13.94ZM773.02,69.48h14.67v64.02h-14.67v-64.02Z" fill="#0a0a26"/>
        <path d="M802.6,115.07v-.24c0-13.82,10.79-20.61,26.43-20.61,7.15,0,12.25,1.09,17.22,2.67v-1.58c0-9.09-5.58-13.94-15.88-13.94-7.15,0-12.49,1.58-18.31,4l-3.88-11.52c7.03-3.15,13.94-5.21,24.13-5.21,9.58,0,16.73,2.55,21.22,7.15,4.73,4.61,6.91,11.4,6.91,19.76v37.95h-14.31v-8c-4.37,5.21-11.03,9.34-20.86,9.34-12.01,0-22.68-6.91-22.68-19.76ZM846.5,110.46v-4.37c-3.76-1.45-8.73-2.55-14.55-2.55-9.46,0-15.04,4-15.04,10.67v.24c0,6.18,5.46,9.7,12.49,9.7,9.7,0,17.1-5.58,17.1-13.7Z" fill="#0a0a26"/>
      </g>
    </g>
  </g>
</svg>